<svg xmlns="http://www.w3.org/2000/svg" viewBox="0 0 100 100">
  <defs>
    <linearGradient id="grad1" x1="0%" y1="0%" x2="100%" y2="100%">
      <stop offset="0%" style="stop-color:#E6522C;stop-opacity:1" />
      <stop offset="100%" style="stop-color:#F5A623;stop-opacity:1" />
    </linearGradient>
  </defs>
  <!-- SSH Terminal Icon Background -->
  <rect x="10" y="15" width="80" height="55" rx="5" ry="5" fill="#2B2B2B"/>
  <rect x="10" y="15" width="80" height="10" rx="5" ry="0" fill="#4A4A4A"/>
  <!-- Terminal window buttons -->
  <circle cx="20" cy="20" r="3" fill="#FF5F56"/>
  <circle cx="30" cy="20" r="3" fill="#FFBD2E"/>
  <circle cx="40" cy="20" r="3" fill="#27CA3E"/>
  <!-- SSH Arrow -->
  <path d="M25 45 L45 45 L45 38 L60 48 L45 58 L45 51 L25 51 Z" fill="url(#grad1)"/>
  <!-- Prometheus Fire Symbol -->
  <path d="M75 40 Q80 35 75 28 Q78 33 72 38 Q76 33 73 28 Q77 36 75 40 Z" fill="#E6522C"/>
  <circle cx="75" cy="50" r="12" fill="none" stroke="url(#grad1)" stroke-width="2"/>
  <!-- Connection line -->
  <line x1="50" y1="80" x2="50" y2="95" stroke="#666" stroke-width="2" stroke-dasharray="3,2"/>
  <circle cx="50" cy="95" r="3" fill="#27CA3E"/>
</svg>
